<mxfile host="65bd71144e">
    <diagram id="Qs6Qv54ofwiKCLoZZ46J" name="Page-1">
        <mxGraphModel dx="1257" dy="1410" grid="1" gridSize="10" guides="1" tooltips="1" connect="1" arrows="1" fold="1" page="1" pageScale="1" pageWidth="850" pageHeight="1100" math="1" shadow="0">
            <root>
                <mxCell id="0"/>
                <mxCell id="1" parent="0"/>
                <mxCell id="157" value="$$m \times k$$" style="whiteSpace=wrap;html=1;" vertex="1" parent="1">
                    <mxGeometry y="30" width="90" height="60" as="geometry"/>
                </mxCell>
                <mxCell id="158" value="$$k \times m$$" style="whiteSpace=wrap;html=1;" vertex="1" parent="1">
                    <mxGeometry x="110" y="30" width="60" height="90" as="geometry"/>
                </mxCell>
                <mxCell id="159" value="$$\cdot$$" style="text;html=1;align=center;verticalAlign=middle;resizable=0;points=[];autosize=1;strokeColor=none;fillColor=none;" vertex="1" parent="1">
                    <mxGeometry x="60" y="45" width="80" height="30" as="geometry"/>
                </mxCell>
                <mxCell id="160" value="$$Q$$" style="text;html=1;align=center;verticalAlign=middle;resizable=0;points=[];autosize=1;strokeColor=none;fillColor=none;" vertex="1" parent="1">
                    <mxGeometry x="15" width="60" height="30" as="geometry"/>
                </mxCell>
                <mxCell id="161" value="$$K^T$$" style="text;html=1;align=center;verticalAlign=middle;resizable=0;points=[];autosize=1;strokeColor=none;fillColor=none;" vertex="1" parent="1">
                    <mxGeometry x="105" width="70" height="30" as="geometry"/>
                </mxCell>
                <mxCell id="162" value="$$=$$" style="text;html=1;align=center;verticalAlign=middle;resizable=0;points=[];autosize=1;strokeColor=none;fillColor=none;" vertex="1" parent="1">
                    <mxGeometry x="150" y="45" width="60" height="30" as="geometry"/>
                </mxCell>
                <mxCell id="163" value="$$m \times m$$" style="whiteSpace=wrap;html=1;" vertex="1" parent="1">
                    <mxGeometry x="190" y="30" width="60" height="60" as="geometry"/>
                </mxCell>
                <mxCell id="164" value="$$A$$" style="text;html=1;align=center;verticalAlign=middle;resizable=0;points=[];autosize=1;strokeColor=none;fillColor=none;" vertex="1" parent="1">
                    <mxGeometry x="190" width="60" height="30" as="geometry"/>
                </mxCell>
                <mxCell id="165" value="$$m \times m$$" style="whiteSpace=wrap;html=1;" vertex="1" parent="1">
                    <mxGeometry y="150" width="60" height="60" as="geometry"/>
                </mxCell>
                <mxCell id="166" value="$$A$$" style="text;html=1;align=center;verticalAlign=middle;resizable=0;points=[];autosize=1;strokeColor=none;fillColor=none;" vertex="1" parent="1">
                    <mxGeometry y="120" width="60" height="30" as="geometry"/>
                </mxCell>
                <mxCell id="167" value="$$m \times k$$" style="whiteSpace=wrap;html=1;" vertex="1" parent="1">
                    <mxGeometry x="80" y="150" width="90" height="60" as="geometry"/>
                </mxCell>
                <mxCell id="168" value="$$\cdot$$" style="text;html=1;align=center;verticalAlign=middle;resizable=0;points=[];autosize=1;strokeColor=none;fillColor=none;" vertex="1" parent="1">
                    <mxGeometry x="30" y="165" width="80" height="30" as="geometry"/>
                </mxCell>
                <mxCell id="169" value="$$V$$" style="text;html=1;align=center;verticalAlign=middle;resizable=0;points=[];autosize=1;strokeColor=none;fillColor=none;" vertex="1" parent="1">
                    <mxGeometry x="95" y="120" width="60" height="30" as="geometry"/>
                </mxCell>
                <mxCell id="170" value="$$=$$" style="text;html=1;align=center;verticalAlign=middle;resizable=0;points=[];autosize=1;strokeColor=none;fillColor=none;" vertex="1" parent="1">
                    <mxGeometry x="150" y="165" width="60" height="30" as="geometry"/>
                </mxCell>
                <mxCell id="171" value="$$m \times k$$" style="whiteSpace=wrap;html=1;" vertex="1" parent="1">
                    <mxGeometry x="190" y="150" width="90" height="60" as="geometry"/>
                </mxCell>
                <mxCell id="172" value="$$O$$" style="text;html=1;align=center;verticalAlign=middle;resizable=0;points=[];autosize=1;strokeColor=none;fillColor=none;" vertex="1" parent="1">
                    <mxGeometry x="205" y="120" width="60" height="30" as="geometry"/>
                </mxCell>
            </root>
        </mxGraphModel>
    </diagram>
</mxfile>